<?xml version="1.0" encoding="UTF-8" standalone="no"?>
<!-- Created with Inkscape (http://www.inkscape.org/) -->

<svg
   width="268.34232mm"
   height="260.02261mm"
   viewBox="0 0 268.34232 260.02261"
   version="1.1"
   id="svg5"
   xml:space="preserve"
   inkscape:version="1.2.2 (b0a8486541, 2022-12-01)"
   sodipodi:docname="logo.svg"
   xmlns:inkscape="http://www.inkscape.org/namespaces/inkscape"
   xmlns:sodipodi="http://sodipodi.sourceforge.net/DTD/sodipodi-0.dtd"
   xmlns="http://www.w3.org/2000/svg"
   xmlns:svg="http://www.w3.org/2000/svg"><sodipodi:namedview
     id="namedview7"
     pagecolor="#ffffff"
     bordercolor="#999999"
     borderopacity="1"
     inkscape:showpageshadow="0"
     inkscape:pageopacity="0"
     inkscape:pagecheckerboard="0"
     inkscape:deskcolor="#d1d1d1"
     inkscape:document-units="mm"
     showgrid="false"
     showguides="false"
     inkscape:zoom="0.5946522"
     inkscape:cx="207.68442"
     inkscape:cy="547.37879"
     inkscape:window-width="1280"
     inkscape:window-height="757"
     inkscape:window-x="0"
     inkscape:window-y="0"
     inkscape:window-maximized="1"
     inkscape:current-layer="layer1" /><defs
     id="defs2" /><g
     inkscape:label="Layer 1"
     inkscape:groupmode="layer"
     id="layer1"
     transform="translate(21.873044,3.4591579)"><rect
       style="fill:#ffffff;stroke-width:14.4995;stroke-linejoin:round"
       id="rect452"
       width="268.29065"
       height="259.92392"
       x="-21.821379"
       y="-3.3604586" /><g
       id="g2046"
       inkscape:label="Pawn_L"
       transform="matrix(0.84623055,0,0,0.83862453,21.859259,-12.288648)"
       style="stroke-width:5.93529;stroke-dasharray:none"><path
         style="fill:none;stroke:#000000;stroke-width:5.93529;stroke-linecap:butt;stroke-linejoin:round;stroke-dasharray:none;stroke-opacity:1"
         d="m 39.824763,198.05167 c 0,0 -0.170935,-12.88917 0.170804,-12.88971 l 50.607261,-0.0786 -0.170806,12.87621 z"
         id="path478"
         sodipodi:nodetypes="csccc" /><path
         style="fill:none;stroke:#000000;stroke-width:5.93529;stroke-linecap:butt;stroke-linejoin:miter;stroke-dasharray:none;stroke-opacity:1"
         d="m 45.086522,184.70912 c 4.750559,-10.2787 9.18211,-21.86717 9.938037,-39.67022 12.05577,0.0854 12.35935,-0.11924 22.797481,0.45168 0.13824,9.57685 2.063331,19.74361 10.08417,38.89159 -16.190507,-0.0927 -28.211774,0.0254 -42.819688,0.32695 z"
         id="path1170"
         sodipodi:nodetypes="ccccc" /><path
         style="fill:none;stroke:#000000;stroke-width:5.93529;stroke-linecap:butt;stroke-linejoin:miter;stroke-dasharray:none;stroke-opacity:1"
         d="m 78.759148,144.80457 c 3.388853,-1.19623 3.753977,-2.62529 3.596517,-5.16846 -0.15746,-2.54316 -2.009803,-4.06756 -4.479643,-4.0482 -6.953157,-0.21661 -18.024655,-0.21429 -23.445804,-0.20338 -3.376127,0.5615 -4.489475,2.96055 -4.305563,5.32017 0.262566,3.38214 3.228993,4.1968 4.585286,4.19992 5.760956,0.16044 18.576006,-0.12295 22.672751,-0.0213 z"
         id="path1174"
         sodipodi:nodetypes="cccccccc" /><ellipse
         style="fill:none;stroke:#000000;stroke-width:5.93529;stroke-linejoin:round;stroke-dasharray:none"
         id="path1176"
         cx="66.266685"
         cy="118.96684"
         rx="16.163532"
         ry="16.242188" /></g><g
       id="g2052"
       inkscape:label="Pawn_R"
       transform="matrix(0.84623055,0,0,0.83862453,21.859259,-12.288648)"
       style="stroke-width:5.93529;stroke-dasharray:none"><path
         style="fill:none;stroke:#000000;stroke-width:5.93529;stroke-linecap:butt;stroke-linejoin:round;stroke-dasharray:none;stroke-opacity:1"
         d="m 139.09938,198.36749 c 0,0 -0.17093,-12.88793 0.1708,-12.88971 l 52.92758,-0.27524 c -0.0569,1.48737 0.29906,6.34996 0.24213,12.85655 z"
         id="path478-0"
         sodipodi:nodetypes="csccc" /><path
         style="fill:none;stroke:#000000;stroke-width:5.93529;stroke-linecap:butt;stroke-linejoin:miter;stroke-dasharray:none;stroke-opacity:1"
         d="m 144.36114,185.02494 c 4.75056,-10.2787 9.18211,-21.86717 9.93803,-39.67022 12.05577,0.0854 12.35935,-0.11924 22.79749,0.45168 0.13824,9.57685 2.06333,19.74361 10.08417,38.89159 -16.19051,-0.0927 -28.21178,0.0254 -42.81969,0.32695 z"
         id="path1170-9"
         sodipodi:nodetypes="ccccc" /><path
         style="fill:none;stroke:#000000;stroke-width:5.93529;stroke-linecap:butt;stroke-linejoin:miter;stroke-dasharray:none;stroke-opacity:1"
         d="m 177.75847,145.2777 c 2.94705,-0.59515 4.39078,-2.72698 4.23332,-5.27015 -0.15746,-2.54316 -2.37131,-4.12318 -4.84115,-4.10382 -6.95316,-0.21661 -18.02466,-0.21429 -23.44581,-0.20338 -3.37612,0.5615 -4.48947,2.96055 -4.30556,5.32017 0.26257,3.38214 3.22899,4.1968 4.58529,4.19992 5.04097,0.14039 15.93683,0.001 21.42358,0.0323 0.78365,0.004 2.06081,0.12359 2.54499,-0.0306 z"
         id="path1174-3"
         sodipodi:nodetypes="ccccccscc" /><ellipse
         style="fill:none;stroke:#000000;stroke-width:5.93529;stroke-linejoin:round;stroke-dasharray:none"
         id="path1176-6"
         cx="165.54131"
         cy="119.28267"
         rx="16.163532"
         ry="16.242188" /></g><ellipse
       style="fill:none;stroke:#000000;stroke-width:14.7281;stroke-linejoin:round;stroke-dasharray:none"
       id="path1669"
       ry="122.63597"
       rx="122.63595"
       cy="126.54086"
       cx="116.39288" /><g
       id="g2061"
       inkscape:label="King"
       transform="matrix(0.84623055,0,0,0.83862453,21.859259,-12.288648)"
       style="stroke-width:5.93529;stroke-dasharray:none"><path
         style="fill:none;stroke:#000000;stroke-width:5.93529;stroke-linecap:butt;stroke-linejoin:miter;stroke-dasharray:none;stroke-opacity:1"
         d="m 131.49715,111.63281 c 2.33213,-0.25074 4.19892,-0.90116 4.59763,-4.11173 0.17624,-2.43193 -0.84184,-4.12318 -4.14594,-4.65999 -6.95316,-0.21661 -26.20038,-0.0474 -31.62153,-0.0365 -3.376129,0.5615 -4.545094,2.34876 -4.361182,4.70838 0.262566,3.38214 3.228993,4.1968 4.585282,4.19992 5.76096,0.16044 18.576,-0.12295 22.67275,-0.0213 z"
         id="path1174-1"
         sodipodi:nodetypes="cccccccc" /><path
         style="fill:none;stroke:#000000;stroke-width:5.93529;stroke-linecap:butt;stroke-linejoin:round;stroke-dasharray:none;stroke-opacity:1"
         d="m 101.55201,120.68717 c 0,0 -0.7999,-8.79643 0.0135,-8.79967 l 29.6458,-0.11793 c -0.0569,1.48737 -0.17286,2.10261 -0.2298,8.6092 z"
         id="path478-0-0-6-6"
         sodipodi:nodetypes="csccc" /><path
         style="fill:none;stroke:#000000;stroke-width:5.93529;stroke-linecap:butt;stroke-linejoin:round;stroke-dasharray:none;stroke-opacity:1"
         d="m 102.29922,102.88102 c -0.97644,-0.91686 -9.660857,-24.31303 -12.536919,-33.082712 8.2929,3.893718 11.307739,6.844871 12.420089,6.399933 2.92141,-5.164218 6.96867,-11.462874 10.3184,-14.669456 -0.26839,-0.217705 4.08316,0.324742 6.06449,0.110657 2.21115,3.24672 8.07097,11.15427 10.82349,14.558799 5.34811,-3.359773 6.90669,-3.72634 12.18413,-6.858367 -2.98131,8.508862 -9.06458,22.81273 -12.13247,33.096216 -8.10179,0.76627 -19.79374,-0.054 -27.14121,0.44493 z"
         id="path1665"
         sodipodi:nodetypes="ccccccccc" /><ellipse
         style="fill:none;stroke:#000000;stroke-width:5.93529;stroke-linejoin:round;stroke-dasharray:none"
         id="path1667"
         cx="115.64735"
         cy="54.271553"
         rx="7.5639448"
         ry="7.3970933" /><path
         style="fill:none;stroke:#000000;stroke-width:5.93529;stroke-linecap:butt;stroke-linejoin:miter;stroke-dasharray:none;stroke-opacity:1"
         d="m -9.444153,180.41774 c 4.750559,-10.2787 15.829867,-33.65746 14.855387,-60.11253 11.50519,-0.0719 12.43801,-0.11924 22.95479,-0.0202 0.45286,27.03818 4.89914,39.89992 14.965,60.30638 -16.19051,-0.0927 -38.16726,-0.47516 -52.775177,-0.17361 z"
         id="path1170-2"
         sodipodi:nodetypes="ccccc"
         transform="translate(99.274615,0.31582472)" /><path
         style="fill:#ffffff;fill-opacity:1;stroke:#000000;stroke-width:5.93529;stroke-linecap:butt;stroke-linejoin:round;stroke-dasharray:none;stroke-opacity:1"
         d="m -24.383434,205.42191 c 0,0 -0.170927,-12.88727 0.170804,-12.88971 l 82.501727,-0.58986 c -0.05693,1.48737 -0.330173,6.82189 -0.387108,13.32848 z"
         id="path478-0-0"
         sodipodi:nodetypes="csccc"
         transform="translate(99.274615,0.31582472)" /><path
         style="fill:#ffffff;fill-opacity:1;stroke:#000000;stroke-width:5.93529;stroke-linecap:butt;stroke-linejoin:round;stroke-dasharray:none;stroke-opacity:1"
         d="m -17.80944,192.05063 c 0,0 -0.642591,-11.47254 0.170804,-11.47393 l 68.973125,-0.11793 c -0.05693,1.48737 -0.01555,5.09149 -0.07249,11.59808 z"
         id="path478-0-0-6"
         sodipodi:nodetypes="csccc"
         transform="translate(99.274615,0.31582472)" /></g><path
       style="fill:#ffffff;fill-opacity:1;stroke:none;stroke-width:0.264583px;stroke-linecap:butt;stroke-linejoin:miter;stroke-opacity:1"
       d="m 15.147038,157.48269 -25.896633,8.88487 c 0,0 41.824166,75.19451 43.60392,74.74957 1.779752,-0.44494 45.72991,-12.43974 45.72991,-12.43974 z"
       id="path2115"
       sodipodi:nodetypes="ccscc" /><path
       style="fill:#ffffff;fill-opacity:1;stroke:none;stroke-width:0.264583px;stroke-linecap:butt;stroke-linejoin:miter;stroke-opacity:1"
       d="M 241.49668,179.85427 217.0251,168.95331 c 0,0 -42.15787,51.05662 -40.37812,50.61168 1.77975,-0.44494 33.30926,10.05255 33.30926,10.05255 z"
       id="path2115-9"
       sodipodi:nodetypes="ccscc" /><text
       xml:space="preserve"
       style="font-weight:bold;font-size:56.4444px;line-height:1.25;font-family:'Acumin Pro';-inkscape-font-specification:'Acumin Pro Bold';stroke-width:0.264583"
       x="-12.6278"
       y="212.69789"
       id="text1761"><tspan
         sodipodi:role="line"
         id="tspan1759"
         style="font-style:normal;font-variant:normal;font-weight:bold;font-stretch:normal;font-size:56.4444px;font-family:'Comic Sans MS';-inkscape-font-specification:'Comic Sans MS Bold';fill:#010101;fill-opacity:1;stroke-width:0.264583"
         x="-12.6278"
         y="212.69789">DigiChess</tspan></text></g></svg>
