<?xml version="1.0" encoding="UTF-8" standalone="no"?>
<svg
   version="1.1"
   width="45"
   height="45"
   id="svg1227"
   sodipodi:docname="rook.svg"
   inkscape:version="1.2.2 (b0a8486541, 2022-12-01)"
   xmlns:inkscape="http://www.inkscape.org/namespaces/inkscape"
   xmlns:sodipodi="http://sodipodi.sourceforge.net/DTD/sodipodi-0.dtd"
   xmlns="http://www.w3.org/2000/svg"
   xmlns:svg="http://www.w3.org/2000/svg">
  <defs
     id="defs1231" />
  <sodipodi:namedview
     id="namedview1229"
     pagecolor="#ffffff"
     bordercolor="#999999"
     borderopacity="1"
     inkscape:showpageshadow="0"
     inkscape:pageopacity="0"
     inkscape:pagecheckerboard="0"
     inkscape:deskcolor="#d1d1d1"
     showgrid="false"
     inkscape:zoom="5.2444444"
     inkscape:cx="22.404661"
     inkscape:cy="22.595339"
     inkscape:window-width="1280"
     inkscape:window-height="757"
     inkscape:window-x="960"
     inkscape:window-y="0"
     inkscape:window-maximized="1"
     inkscape:current-layer="svg1227" />
  <rect
     style="fill:#3140a5;fill-opacity:1;stroke-width:18.8976;stroke-linejoin:round"
     id="rect309"
     width="45"
     height="45"
     x="-7.4354267e-07"
     y="0" />
  <g
     style="opacity:1;fill:#ffffff;fill-opacity:1;fill-rule:evenodd;stroke:#000000;stroke-width:1.5;stroke-linecap:round;stroke-linejoin:round;stroke-miterlimit:4;stroke-dasharray:none;stroke-opacity:1"
     transform="translate(0,0.3)"
     id="g1225">
    <path
       d="M 9,39 L 36,39 L 36,36 L 9,36 L 9,39 z "
       style="stroke-linecap:butt;"
       id="path1211" />
    <path
       d="M 12,36 L 12,32 L 33,32 L 33,36 L 12,36 z "
       style="stroke-linecap:butt;"
       id="path1213" />
    <path
       d="M 11,14 L 11,9 L 15,9 L 15,11 L 20,11 L 20,9 L 25,9 L 25,11 L 30,11 L 30,9 L 34,9 L 34,14"
       style="stroke-linecap:butt;"
       id="path1215" />
    <path
       d="M 34,14 L 31,17 L 14,17 L 11,14"
       id="path1217" />
    <path
       d="M 31,17 L 31,29.5 L 14,29.5 L 14,17"
       style="stroke-linecap:butt; stroke-linejoin:miter;"
       id="path1219" />
    <path
       d="M 31,29.5 L 32.5,32 L 12.5,32 L 14,29.5"
       id="path1221" />
    <path
       d="M 11,14 L 34,14"
       style="fill:none; stroke:#000000; stroke-linejoin:miter;"
       id="path1223" />
  </g>
</svg>
